<svg width="154" height="187" viewBox="0 0 154 187" fill="none" xmlns="http://www.w3.org/2000/svg">
<g clip-path="url(#clip0_1019_3012)">
<path d="M93.588 35.4965C115.911 49.2934 122.879 78.6706 109.13 101.102C103.563 110.206 95.6242 117.264 86.2467 120.418C68.6686 126.35 52.9959 133.201 44.0107 147.88L15.6914 130.367C24.6766 115.688 23.7239 98.5494 21.0526 80.0972C19.6329 70.2798 22.3416 59.9743 27.9083 50.8702C41.6383 28.4385 70.8729 21.4368 93.1958 35.2525L93.5507 35.4777L93.588 35.4965Z" fill="url(#paint0_radial_1019_3012)" stroke="url(#paint1_radial_1019_3012)" stroke-miterlimit="10"/>
<path d="M42.8463 150.496L13.9688 132.644L0.813421 154.132L29.6909 171.984L42.8463 150.496Z" fill="#232323"/>
<path d="M7.97647 174.911L29.2346 173.109L0 155.032L7.97647 174.911Z" fill="#232323"/>
<path d="M23.5557 146.904L24.2842 150.828L27.3851 145.797L23.5557 146.904Z" fill="#232323"/>
<path d="M19.6143 153.343L20.3428 157.266L23.4437 152.235L19.6143 153.343Z" fill="#232323"/>
<path d="M15.6357 159.819L16.383 163.761L19.4652 158.711L15.6357 159.819Z" fill="#232323"/>
<path d="M27.9457 144.877L24.1162 145.985L27.1985 140.935L27.9457 144.877Z" fill="#232323"/>
<path d="M24.0043 151.316L20.1748 152.423L23.257 147.374L24.0043 151.316Z" fill="#232323"/>
<path d="M20.0256 157.792L16.2148 158.899L19.2971 153.869L20.0256 157.792Z" fill="#232323"/>
<path d="M7.97656 137.275L43.5251 154.507L39.6956 155.615L8.72377 141.198L7.97656 137.275Z" fill="#232323"/>
<path d="M4.03516 143.713L39.5837 160.945L35.7542 162.053L4.76369 147.637L4.03516 143.713Z" fill="#232323"/>
<path d="M0.0751953 150.189L35.605 167.422L31.7756 168.529L0.803725 154.113L0.0751953 150.189Z" fill="#232323"/>
<path d="M111.203 6.32617L103.059 19.635" stroke="white" stroke-width="2" stroke-miterlimit="10"/>
<path d="M153.832 79.1025L138.346 80.4165" stroke="white" stroke-width="2" stroke-miterlimit="10"/>
<path d="M27.0303 0.694336L32.8585 15.2046" stroke="white" stroke-width="2" stroke-miterlimit="10"/>
<path d="M74.3097 154.882H61.2335C61.2335 139.903 76.4579 125.468 89.889 112.741C94.9887 107.898 99.8082 103.336 103.077 99.413C108.158 93.2935 110.96 84.6587 110.96 75.1229C110.96 52.4471 92.5977 33.9949 70.0319 33.9949H69.6023C47.0365 33.9949 28.6738 52.4471 28.6738 75.1229H15.5977C15.5977 45.2014 39.8259 20.855 69.6023 20.855H70.0319C99.8082 20.855 124.037 45.2014 124.037 75.1229C124.037 87.7372 120.151 99.3567 113.109 107.841C109.354 112.365 104.254 117.189 98.8555 122.314C87.9089 132.695 74.291 145.59 74.291 154.901L74.3097 154.882Z" fill="#232323"/>
<path d="M68.4631 187C73.2913 187 77.2054 183.067 77.2054 178.215C77.2054 173.363 73.2913 169.43 68.4631 169.43C63.6348 169.43 59.7207 173.363 59.7207 178.215C59.7207 183.067 63.6348 187 68.4631 187Z" fill="#232323"/>
</g>
<defs>
<radialGradient id="paint0_radial_1019_3012" cx="0" cy="0" r="1" gradientUnits="userSpaceOnUse" gradientTransform="translate(65.96 88.0375) scale(55.1067 55.3754)">
<stop offset="0.66" stop-color="white"/>
<stop offset="1" stop-color="#A0D4DE"/>
</radialGradient>
<radialGradient id="paint1_radial_1019_3012" cx="0" cy="0" r="1" gradientUnits="userSpaceOnUse" gradientTransform="translate(65.7732 88.2252) scale(56.2089 56.4829)">
<stop offset="0.66" stop-color="white"/>
<stop offset="1" stop-color="#AEDAE2"/>
</radialGradient>
<clipPath id="clip0_1019_3012">
<rect width="154" height="187" fill="white"/>
</clipPath>
</defs>
</svg>
